PathFileType	4	(X/Y/Z)	intermediate\S1_nor_fast_left\tmpqolbj2xf.trc
DataRate	CameraRate	NumFrames	NumMarkers	Units	OrigDataRate	OrigDataStartFrame	OrigNumFrames
250.0	250.0	14	18	mm	250.0	464	3710
Frame#	Time	c7			r_should			l_should			clavicle			r_upa			r_elb_l			r_elb_m			r_low			r_wri_l			r_wri_m			r_met			l_upa			l_elb_l			l_elb_m			l_low			l_wri_l			l_wri_m			l_met			
		X	Y	Z	X	Y	Z	X	Y	Z	X	Y	Z	X	Y	Z	X	Y	Z	X	Y	Z	X	Y	Z	X	Y	Z	X	Y	Z	X	Y	Z	X	Y	Z	X	Y	Z	X	Y	Z	X	Y	Z	X	Y	Z	X	Y	Z	X	Y	Z	
464	1.852000	981.150146	1426.949341	146.644455	1045.948486	1351.638306	328.697540	1023.529297	1348.503296	-45.324680	1110.436401	1298.762573	134.893494	1032.710571	1140.081421	374.094360	1048.169800	1036.435303	377.780914	972.003174	1024.411987	308.086517	996.589539	909.124634	391.098297	1072.560303	815.015625	359.106110	1002.024658	804.929504	376.571411	1096.829224	728.038879	377.118439	1013.757080	1123.364014	-71.949982	1015.662292	1041.758179	-85.188179	991.291382	1015.130066	10.351064	1016.099548	892.184326	-64.660408	1101.209839	827.840515	-93.435753	1066.344727	803.237488	-35.967369	1125.208618	754.155090	-113.134895	
465	1.856000	981.168213	1426.915039	146.609406	1046.109253	1351.683594	328.663574	1023.387573	1348.357422	-45.353928	1110.466187	1298.758423	134.827881	1033.010010	1140.148438	374.122131	1048.424194	1036.482910	377.823975	972.212219	1024.452393	308.194000	996.818298	909.203857	391.258087	1072.701294	815.042297	359.235565	1002.181519	804.996399	376.782471	1096.928833	728.058777	377.302338	1013.481628	1123.157715	-71.694359	1015.329102	1041.564087	-84.815369	991.221802	1015.039795	10.772924	1015.931396	892.007385	-64.054962	1101.006470	827.708923	-92.953880	1066.371704	803.142822	-35.279362	1124.972778	754.000183	-112.621147	
466	1.860000	981.195618	1426.904541	146.575714	1046.270996	1351.730713	328.628967	1023.249268	1348.206665	-45.395336	1110.493652	1298.759521	134.753677	1033.319092	1140.219360	374.158875	1048.675293	1036.539795	377.867676	972.440369	1024.493896	308.283539	997.054626	909.285828	391.416382	1072.848511	815.068604	359.362976	1002.350098	805.068054	376.998840	1097.046631	728.084351	377.475372	1013.218872	1122.965088	-71.447380	1014.976990	1041.371216	-84.450562	991.099976	1014.956970	11.180620	1015.765076	891.828674	-63.453300	1100.804810	827.600281	-92.518188	1066.367920	803.088379	-34.743546	1124.743774	753.895386	-112.122147	
467	1.864000	981.229492	1426.880737	146.536407	1046.434448	1351.784912	328.599396	1023.111694	1348.055176	-45.432152	1110.525146	1298.758301	134.683456	1033.632812	1140.198120	374.125549	1048.942139	1036.595093	377.896057	972.653259	1024.538696	308.381134	997.283081	909.367859	391.564667	1072.997681	815.100342	359.491394	1002.524109	805.143494	377.217651	1097.185791	728.126160	377.655273	1012.961609	1122.778320	-71.210320	1014.624573	1041.171387	-84.070045	990.957214	1014.848022	11.612274	1015.593994	891.661743	-62.889725	1100.616455	827.508362	-92.096367	1066.332397	803.046509	-34.266796	1124.543457	753.825806	-111.653534	
468	1.868000	981.260071	1426.858398	146.481415	1046.590088	1351.837280	328.561768	1022.969849	1347.902832	-45.461010	1110.555542	1298.759521	134.607132	1033.941284	1140.100220	374.028259	1049.213379	1036.651245	377.925049	972.856567	1024.587524	308.476349	997.512573	909.452759	391.711212	1073.151123	815.131897	359.617004	1002.699280	805.216431	377.434601	1097.338989	728.170654	377.838684	1012.702576	1122.590820	-70.981201	1014.274963	1040.971680	-83.693298	990.663696	1014.806885	12.006305	1015.411499	891.510193	-62.378826	1100.435303	827.419617	-91.660187	1066.302612	803.001648	-33.740112	1124.390747	753.742859	-111.188087	
469	1.872000	981.282959	1426.843872	146.432907	1046.748535	1351.894409	328.520599	1022.836792	1347.751099	-45.492546	1110.584961	1298.763306	134.530197	1034.234863	1140.135498	374.012726	1049.483887	1036.722656	377.960541	973.063782	1024.634766	308.575226	997.746887	909.539429	391.862183	1073.310181	815.165100	359.749390	1002.873535	805.289856	377.644836	1097.493652	728.215637	378.024048	1012.446899	1122.401733	-70.762276	1013.925537	1040.786987	-83.352509	990.270081	1014.798645	12.309793	1015.212524	891.367676	-61.899155	1100.280029	827.331177	-91.209755	1066.292114	802.936646	-33.158428	1124.244751	753.683716	-110.748055	
470	1.876000	981.301758	1426.818604	146.375153	1046.906860	1351.945801	328.473358	1022.707336	1347.597534	-45.521420	1110.616211	1298.766113	134.458481	1034.514893	1140.189453	374.009247	1049.751587	1036.786865	377.997192	973.264404	1024.685181	308.669922	997.986572	909.629639	392.015289	1073.477417	815.197571	359.886047	1003.050354	805.365601	377.849701	1097.642212	728.266968	378.213196	1012.193665	1122.212158	-70.538719	1013.576416	1040.614380	-83.036331	989.952942	1014.813171	12.577722	1015.014404	891.230835	-61.433647	1100.146606	827.260681	-90.769295	1066.283691	802.861572	-32.585365	1124.105835	753.641235	-110.343689	
471	1.880000	981.321655	1426.798096	146.317780	1047.062378	1352.005005	328.419922	1022.584900	1347.451782	-45.554790	1110.651245	1298.763184	134.390961	1034.794067	1140.240479	374.013336	1050.016113	1036.853760	378.030609	973.469604	1024.735474	308.776489	998.229675	909.730286	392.175110	1073.652954	815.235229	360.022217	1003.238647	805.443115	378.054688	1097.816162	728.333679	378.391602	1011.936401	1122.026001	-70.329308	1013.225586	1040.465332	-82.736366	989.791504	1014.783752	12.862056	1014.834290	891.081482	-60.981911	1100.023926	827.211670	-90.352623	1066.282104	802.810974	-32.093231	1123.981445	753.621094	-109.970779	
472	1.884000	981.342896	1426.777710	146.268768	1047.210693	1352.067505	328.365662	1022.474670	1347.309448	-45.589348	1110.693237	1298.759521	134.326645	1035.072876	1140.308960	374.014374	1050.275513	1036.925781	378.074188	973.680603	1024.781494	308.877167	998.470276	909.831787	392.330780	1073.837036	815.281006	360.167328	1003.435608	805.519165	378.268311	1097.933472	728.323242	378.553680	1011.682983	1121.847168	-70.145447	1012.879028	1040.321289	-82.447762	989.685059	1014.737610	13.177347	1014.671448	890.936157	-60.547878	1099.906860	827.170959	-89.963852	1066.265259	802.785767	-31.707056	1123.872803	753.635132	-109.624100	
473	1.888000	981.356689	1426.741455	146.221283	1047.352417	1352.125854	328.313416	1022.363037	1347.157593	-45.619495	1110.721191	1298.757080	134.248550	1035.347168	1140.380615	374.021210	1050.537354	1036.994019	378.112274	973.874634	1024.828491	309.002197	998.704651	909.925232	392.483185	1074.027466	815.332764	360.323425	1003.638245	805.592407	378.487122	1097.969604	728.217834	378.699371	1011.432556	1121.669189	-69.969292	1012.533447	1040.184814	-82.184998	989.581482	1014.681335	13.499147	1014.513733	890.805176	-60.125134	1099.798462	827.155212	-89.606010	1066.224854	802.774170	-31.325281	1123.797119	753.665466	-109.262100	
474	1.892000	981.374329	1426.717163	146.163605	1047.489502	1352.180420	328.264954	1022.250549	1347.006592	-45.652939	1110.755127	1298.748657	134.180008	1035.611694	1140.446655	374.028198	1050.797974	1037.060791	378.133270	974.075256	1024.869995	309.120483	998.942322	910.017639	392.637360	1074.222046	815.383850	360.476868	1003.844116	805.670044	378.712036	1098.122559	728.235107	378.887939	1011.188843	1121.501465	-69.810928	1012.172791	1040.042603	-81.932953	989.497253	1014.603027	13.815168	1014.354248	890.694946	-59.741688	1099.700562	827.164612	-89.280579	1066.161987	802.777527	-30.967381	1123.724243	753.740112	-108.919411	
475	1.896000	981.379578	1426.697754	146.096497	1047.624878	1352.226929	328.214233	1022.144226	1346.859009	-45.685455	1110.781616	1298.743042	134.112915	1035.851929	1140.512329	374.037384	1051.069092	1037.146729	378.158325	974.270996	1024.925049	309.236694	999.195068	910.113159	392.797577	1074.421265	815.434143	360.626617	1004.060242	805.759277	378.947083	1098.311401	728.282959	379.083099	1010.943298	1121.344116	-69.665886	1011.794067	1039.906128	-81.690971	989.395386	1014.502625	14.101517	1014.181396	890.603394	-59.418472	1099.608032	827.196594	-88.982117	1066.109375	802.791870	-30.624361	1123.655273	753.849609	-108.597435	
476	1.900000	981.388855	1426.680664	146.022202	1047.761230	1352.280518	328.163605	1022.050171	1346.713745	-45.726746	1110.808350	1298.741577	134.035934	1036.063599	1140.568115	374.030121	1051.344238	1037.240479	378.184723	974.463867	1024.979370	309.367004	999.462524	910.209412	392.956909	1074.628296	815.484985	360.768738	1004.290710	805.851501	379.187531	1098.506592	728.342651	379.269287	1010.692383	1121.193481	-69.526970	1011.416687	1039.786499	-81.468735	989.264465	1014.392151	14.356434	1013.997314	890.532654	-59.144600	1099.521484	827.244507	-88.698135	1066.055542	802.838074	-30.303652	1123.597046	753.977905	-108.313225	
477	1.904000	981.406189	1426.663818	145.946915	1047.899048	1352.344116	328.110107	1021.964294	1346.568726	-45.760361	1110.841553	1298.729248	133.965866	1036.277344	1140.628784	374.041840	1051.622192	1037.331787	378.211914	974.652832	1025.022705	309.489044	999.740967	910.310425	393.123444	1074.841797	815.539917	360.901184	1004.527100	805.934265	379.428406	1098.716431	728.412598	379.453522	1010.422974	1121.040894	-69.401115	1011.023987	1039.678101	-81.274658	989.050537	1014.301270	14.581383	1013.796326	890.473694	-58.894615	1099.446045	827.300964	-88.417313	1066.012207	802.894348	-29.993162	1123.571411	754.130615	-108.059898	
